<?xml version="1.0" encoding="UTF-8"?>
<svg id="Layer_2" data-name="Layer 2" xmlns="http://www.w3.org/2000/svg" viewBox="0 0 304.57 295.59">
  <defs>
    <style>
      .cls-1 {
        stroke: rgba(252, 223, 202, .1);
        stroke-miterlimit: 10;
      }

      .cls-1, .cls-2, .cls-3 {
        fill: none;
      }

      .cls-4 {
        fill: rgba(252, 223, 202, .92);
      }

      .cls-4, .cls-5, .cls-6 {
        stroke-width: 0px;
      }

      .cls-2 {
        stroke: rgba(92, 87, 123, .68);
      }

      .cls-5 {
        fill: rgba(92, 87, 123, .79);
        fill-rule: evenodd;
      }

      .cls-6 {
        fill: rgba(52, 46, 56, .79);
      }

      .cls-3 {
        stroke: rgba(52, 46, 56, .68);
      }
    </style>
  </defs>
  <g id="Layer_1-2" data-name="Layer 1">
    <g>
      <g>
        <path class="cls-5" d="m29.47,142.13l45.58-63.8,6.46,1.49,8.99-25.92,10.55,10.31,9.6-36.24,12.81,7.05L145.73,0l33.43,52.26,6.94-7.05,19.06,34.87,5.86-9.64,16.34,16.43,4.97-6.92,56.77,62.72s-157.3,42.04-259.62-.54h-.02Zm48.17-58.5l11.99,19.62-5.64-19-6.35-.62Zm136.16,7.8l-22.71-39.91-8.13,6.51L150.29,7.8s.95,12.98-2.01,22.83c-3.98,13.33-5.06,20.42,5.01,27.28,12.79,8.69-.39,16.58-7.52,21.37-17.05,11.47-21.48,38.06-1.3,37.91l37.58-.28s-4.21-11.4,31.76-25.51v.02Zm26.19-5.63l3.41,12.29,19.04,9.57-22.43-21.86h-.02Zm-22.06-10.52l.99,17.38,5.68-6.79,3.65,25.12,36.59,5.43-29.93-16.82-2.53-10.59-14.44-13.71v-.02Zm-104.33-40.86l1.95,20.91,8.77-15.61-10.72-5.3Zm-19.28,27.15l-.28,35.02,7.99-27.96-7.71-7.05v-.02Z"/>
        <path class="cls-2" d="m81.99,79.98l8.73-25.18,9.99,9.76.61.6.22-.83,9.44-35.62,12.25,6.74.41.23.25-.4L145.73.93l4.35,6.8-.29.1h0s0,0,0,0v.03s0,.06,0,.11c0,.1.01.24.03.42.02.37.04.91.07,1.59.04,1.36.07,3.28,0,5.51-.13,4.46-.63,10.12-2.09,14.98h0c-1.99,6.65-3.29,11.85-2.78,16.27.51,4.48,2.87,8.08,7.99,11.57h0c3.14,2.14,4.6,4.17,5.02,6.03.41,1.85-.19,3.66-1.43,5.42-1.25,1.77-3.12,3.44-5.14,4.98-1.62,1.24-3.33,2.37-4.86,3.39-.38.25-.74.49-1.1.73h0c-8.64,5.81-14.1,15.46-14.83,23.68-.37,4.12.45,7.93,2.71,10.71,2.27,2.79,5.94,4.47,11.1,4.43l37.58-.28h.71s-.24-.67-.24-.67h0s0,0,0,0h0s-.01-.05-.02-.08c-.02-.07-.04-.18-.06-.33-.04-.3-.06-.76.01-1.35.16-1.19.72-2.98,2.39-5.23,3.34-4.47,11.08-10.74,28.73-17.72l.73,1.28v-2.64l-.29.11-7.14-12.55,4.25-6.99,6.45,6.48.85,14.95.07,1.26.81-.97,4.96-5.93,3.49,24.01.05.37.37.06,36.59,5.43.1-.28,23.33,25.77c-.27.07-.6.15-.99.25-1.17.3-2.91.73-5.16,1.26-4.5,1.07-11.04,2.54-19.2,4.18-16.33,3.27-39.18,7.19-65.21,9.79-51.9,5.17-116.42,5.04-167.37-15.97l45.02-63.01,6.13,1.42.44.1.15-.42Zm170.92,23.43l10.53,11.63-28.09-15.79-2.48-10.38-.03-.14-.11-.1-3.57-3.39,3.23-4.5,8.2,9.06,2.33,8.41.06.21.2.1,9.73,4.89Zm-25.07-18.04l-.52.73-8.76-8.81-.04-.77,9.33,8.85Zm31.94,20.38l-6.25-3.14-12.04-13.3-.52-1.9,18.81,18.33Zm-54.06-27.53l-.53.86-14.53-26.58.29-.23,14.76,25.95Zm-19.73-32.18l3.39,6.2-6.3,5.04-3.25-4.99,6.16-6.25Zm-108.3,37.09l-1-.1.52.86,11.99,19.62.91-.4-5.64-19-.1-.32-.34-.03-6.35-.62Zm36.13-49.17l-.8-.4.08.89,1.95,20.91.15,1.6.78-1.4,8.77-15.61.26-.46-.47-.23-10.72-5.3Zm-19.17,27.25l-.32.35h-.52s0,0,0,0l-.28,35.02.98.14,7.99-27.96.08-.3-.23-.21-7.71-7.05Z"/>
      </g>
      <g>
        <path class="cls-6" d="m301.97,150.57l2.12-11.6c3.28-18.03-10.7-32.19-28.98-31.85l-74.79-1.01c-17.26.32-33,9.94-41.17,25.2l-12.84,23.98c-2.92,5.46-11.02,4.59-12.69-1.4l-8.17-29.07c-3.44-12.25-14.59-20.7-27.29-20.7h-17.01c-19.75,0-36.97,13.47-41.75,32.65l-27.45,109.88c-6.14,24.6,12.42,48.43,37.73,48.43h1.08c21.67,0,39.81-15.78,42.85-37.04,1.95-13.73,3.91-27.38,4.75-33.25.11-.76,1.17-.86,1.41-.13l11.67,33.57c3.61,10.37,17.46,12.23,23.66,3.17l24.74-36.14c.45-.65,1.47-.24,1.34.54l-2.74,15.82c-4.49,26.03,15.51,49.83,41.86,49.83h57.25c10.42,0,19.15-7.93,20.16-18.31l1.32-13.35c1.01-10.26-7.04-19.15-17.33-19.15h-29.39c-4.39,0-7.97-3.58-7.97-7.98v-2.89c0-4.51,3.67-8.19,8.17-8.19h22.49c5.88,0,10.89-4.31,11.76-10.15l1.77-11.86c.89-6.02-3.76-11.45-9.85-11.45h-26.06c-3.95,0-7.15-3.21-7.15-7.16v-6.21c0-4.57,3.7-8.26,8.25-8.26h49.21c9.34,0,17.35-6.7,19.04-15.91Z"/>
        <path class="cls-3" d="m275.12,107.62h-.02l-74.78-1.01c-17.07.32-32.65,9.84-40.73,24.93l-12.84,23.98h0c-3.13,5.86-11.82,4.92-13.62-1.5l-8.17-29.07c-3.38-12.04-14.34-20.34-26.81-20.34h-17.01c-19.52,0-36.54,13.31-41.26,32.28h0l-27.45,109.88M275.12,107.62L12.42,246.78M275.12,107.62c18.01-.33,31.69,13.59,28.48,31.26l-2.12,11.6h0c-1.65,8.98-9.45,15.5-18.55,15.5h-49.21c-4.82,0-8.75,3.92-8.75,8.76v6.21c0,4.23,3.43,7.66,7.65,7.66h26.06c5.78,0,10.2,5.15,9.35,10.88M12.42,246.78c-6.06,24.28,12.26,47.81,37.24,47.81h1.08c21.42,0,39.35-15.6,42.35-36.61m-80.68-11.2l80.68,11.2m0,0h0l.5.07m-.5-.07l6.66-33.31c-.24-.73-1.3-.63-1.41.13-.28,2-.7,4.9-1.2,8.39-.97,6.78-2.26,15.8-3.55,24.86m0,0c-3.03,21.26-21.18,37.04-42.85,37.04h-1.08c-25.31,0-43.87-23.83-37.73-48.43l27.45-109.88c4.78-19.19,22-32.65,41.75-32.65h17.01c12.69,0,23.84,8.45,27.29,20.7l-31.85,133.23Z"/>
      </g>
      <g>
        <path class="cls-4" d="m291.72,150.57l2.12-11.6c3.28-18.03-10.7-32.19-28.98-31.85l-74.79-1.01c-17.26.32-33,9.94-41.17,25.2l-12.84,23.98c-2.92,5.46-11.02,4.59-12.69-1.4l-8.17-29.07c-3.44-12.25-14.59-20.7-27.29-20.7h-17.01c-19.75,0-36.97,13.47-41.75,32.65L1.68,246.64c-6.14,24.6,12.42,48.43,37.73,48.43h1.08c21.67,0,39.81-15.78,42.85-37.04,1.95-13.73,3.91-27.38,4.75-33.25.11-.76,1.17-.86,1.41-.13l11.67,33.57c3.61,10.37,17.46,12.23,23.66,3.17l24.74-36.14c.45-.65,1.47-.24,1.34.54l-2.74,15.81c-4.49,26.04,15.51,49.83,41.86,49.83h57.26c10.42,0,19.15-7.93,20.16-18.31l1.32-13.35c1.01-10.26-7.04-19.15-17.33-19.15h-29.39c-4.39,0-7.97-3.58-7.97-7.98v-2.89c0-4.51,3.67-8.19,8.17-8.19h22.49c5.88,0,10.89-4.31,11.76-10.15l1.77-11.86c.89-6.02-3.76-11.45-9.85-11.45h-26.06c-3.95,0-7.15-3.21-7.15-7.16v-6.21c0-4.57,3.7-8.26,8.25-8.26h49.21c9.34,0,17.35-6.69,19.04-15.91v.02Z"/>
        <path class="cls-1" d="m291.72,150.57l2.12-11.6c3.28-18.03-10.7-32.19-28.98-31.85l-74.79-1.01c-17.26.32-33,9.94-41.17,25.2l-12.84,23.98c-2.92,5.46-11.02,4.59-12.69-1.4l-8.17-29.07c-3.44-12.25-14.59-20.7-27.29-20.7h-17.01c-19.75,0-36.97,13.47-41.75,32.65L1.68,246.64c-6.14,24.6,12.42,48.43,37.73,48.43h1.08c21.67,0,39.81-15.78,42.85-37.04,1.95-13.73,3.91-27.38,4.75-33.25.11-.76,1.17-.86,1.41-.13l11.67,33.57c3.61,10.37,17.46,12.23,23.66,3.17l24.74-36.14c.45-.65,1.47-.24,1.34.54l-2.74,15.81c-4.49,26.04,15.51,49.83,41.86,49.83h57.26c10.42,0,19.15-7.93,20.16-18.31l1.32-13.35c1.01-10.26-7.04-19.15-17.33-19.15h-29.39c-4.39,0-7.97-3.58-7.97-7.98v-2.89c0-4.51,3.67-8.19,8.17-8.19h22.49c5.88,0,10.89-4.31,11.76-10.15l1.77-11.86c.89-6.02-3.76-11.45-9.85-11.45h-26.06c-3.95,0-7.15-3.21-7.15-7.16v-6.21c0-4.57,3.7-8.26,8.25-8.26h49.21c9.34,0,17.35-6.69,19.04-15.91v.02Z"/>
      </g>
    </g>
  </g>
</svg>