<?xml version="1.0" encoding="UTF-8"?>
<svg id="Layer_2" data-name="Layer 2" xmlns="http://www.w3.org/2000/svg" viewBox="0 0 323.8 384.96">
  <defs>
    <style>
      .cls-1 {
        fill: #7a1e18;
      }

      .cls-1, .cls-2, .cls-3, .cls-4, .cls-5, .cls-6, .cls-7, .cls-8, .cls-9, .cls-10, .cls-11, .cls-12, .cls-13, .cls-14, .cls-15, .cls-16, .cls-17, .cls-18, .cls-19 {
        stroke-width: 0px;
      }

      .cls-2 {
        fill: #502414;
      }

      .cls-3 {
        fill: #88401b;
      }

      .cls-4 {
        fill: #723a1f;
      }

      .cls-5 {
        fill: #966816;
      }

      .cls-6 {
        fill: #0e0a07;
      }

      .cls-7 {
        fill: #1c120e;
      }

      .cls-8 {
        fill: #e15a54;
      }

      .cls-9 {
        fill: #da7667;
      }

      .cls-10 {
        fill: #ba672f;
      }

      .cls-11 {
        fill: #9f541f;
      }

      .cls-12 {
        fill: #c28227;
      }

      .cls-13 {
        fill: #301208;
      }

      .cls-14 {
        fill: #fdfdfc;
      }

      .cls-15 {
        fill: #eed14e;
      }

      .cls-16 {
        fill: #fbc48b;
      }

      .cls-17 {
        fill: #e68c70;
      }

      .cls-18 {
        fill: #ebbb2f;
      }

      .cls-19 {
        fill: #eaae3b;
      }
    </style>
  </defs>
  <g id="body">
    <path class="cls-2" d="m234.5,206.44c7.67,7.1,22.44,31.02,21.47,65.29,7.24-2.43,33.97-12.82,51,14.5,18.62,36.48-24.13,90.53-61.17,96.45,0,0-17.36,3.47-41.61-4.51,0,0-33.94-1.36-40.76,0,0,0-14.14.14-17.87-.79,0,0-17.33-2.55-26.24.79,0,0-32.61,9.31-45.81,3.79-13.1,1.17-93.13-55.73-54.78-101.26,0,0,13.96-15.36,34.09-12.06l16.17-5.78s-2.25-38.85,21.48-56.39l144.02-.05"/>
    <path class="cls-13" d="m222.64,382.51c-1.09-.66-16.6-16.42-16.93-16.91s.66-7.67.66-7.67l-24.01-10.07s-6.88,2.56-7.85,3.63-11.76,12.5-11.76,12.5c0,0-7.61-10.59-8.68-10.05s-2.89,1.29-2.89,1.29l-35.15,9.6-2.64,2.15s-4.85,6.55-12.05,11.81c0,0-5.87,3.86-8.42,4.49s22.53-3.98,24.97-4.72,11.16-2.75,19.41-1.96c8.26.79,13.61,2.06,22.65,1.57,9.04-.48,37.22-.54,41.21-.11s21.48,4.44,21.48,4.44Z"/>
    <path class="cls-13" d="m214.53,243.24c3.96,14.44,1.4,37.13-.33,48.27-1.73,11.13-9.67,22.86-11.19,23.96-1.53,1.1-3.03.48-3.03.48l11.8-70.34c-.45-.44-14.39,7.02-31.35,7.75-17.33.75-37.35-3.8-37.35-3.8l-23.68-1.66-.22,4.52-5.22-.96-.43-.98c.33-.14,1.73-1.97,1.73-1.97,1.94-2.97,2.78-3.03,2.78-3.03-4.86-3.77-29.82-34.59-29.62-35.79-.12-.53.76-2.21.76-2.21l1.29-1s12.46,4.02,15.21,5.01,20.95,4.36,25.79,4.95c4.85.6,102.86-9.85,102.86-9.85,2.08.24,4.14,4.55,4.14,4.55-7.09,18.64-23.94,32.09-23.94,32.09Z"/>
    <g id="FEET">
      <path class="cls-4" d="m227.96,339.01s.95.78,2.08-.04,2.25-2.1,3.42-1.94-3.61,10.09-3.61,10.09l-9.29,12.96s-3.05-2.72-3.34-3.17,10.73-17.9,10.73-17.9Z"/>
      <path class="cls-17" d="m87.49,333.99s-12.71-16.99-14.14-24.14-3.96-17.49-4.51-17.49-1.43,10.23-1.43,10.23c0,0-5.17-14.28-16.17-16.6l3.25,16.78s-4.57-15.36-17.11-16.35c0,0,2.53,9.46,2.86,10.12s1.98,10.12,1.54,10.23-3.85-3.19-5.94-5.83-5.17-5.63-5.17-5.63c0,0,.55,23.45.66,23.78s-8.42-8.8-10.09-11c-1.02,2.97,3.27,21.23,7.78,27.83,4.51,7.04,18.59,23.76,25.47,24.86,6.87,1.1,17.65-1.21,25.36-7.59s7.65-19.2,7.65-19.2Z"/>
      <path class="cls-9" d="m52.53,360.16s32.91,21.01,48.26-.39c0,0-8.25-8.8-5.83-17.71l-7.47-8.15s-.94,14.34-9.3,20.11c-9.3,5.17-16.02,6.69-25.65,6.14Z"/>
      <path class="cls-17" d="m233.46,336.64s19.99-25.03,21.25-44.96c0,0,.66,13.78,1.16,13.78s3.88-19.27,13.12-19.62c0,0,1.98-.02.83,6.34s-1.57,10.73-1.57,10.73c0,0,6.35-14.93,17.82-16.91l-6.52,20.71s7.34-9.32,15.35-8.42c0,0,8.5.58,4.21,4.21,0,0-9.41,8.5-8.83,17.24,0,0,9.41-9.49,9.9-9.82,0,0-1.73,15.1-8.17,25.33-7.26,11.96-22.16,23.43-27.14,26.27,0,0-15.05.63-24.65-10.02-7.61-7.18-6.75-14.85-6.75-14.85Z"/>
      <path class="cls-9" d="m220.39,359.9s8.92-9.65,13.04-22.19c0,0,3.54,11.47,10.22,16.23,8.75,3.73,17.16,8.67,21.2,7.56,0,0-18.38,10.38-26.39,8.72s-15.11-7.34-18.08-10.32Z"/>
    </g>
    <g id="HANDS">
      <path class="cls-4" d="m209.15,282.84c-.28.39-.31.46.22.63.54.18.71-.18,1.47,0,.76.19.64,2.8.64,2.8-.13,3.17-3.84,12.87-3.84,12.87-1.44,5.36-7.66,16.81-7.66,16.81-2,1.05-.53,1.53-.53,1.53-2.14.25-8.84,8.14-10.29,9.46-1.44,1.32-10.15,14.54-10.23,14.58-.08.04-1.94,1.72-3.18,3.21-1.23,1.5-.76,5.02-.8,5.31-.04.29-.45,1.45-.45,1.45-.91.86-11.76,12.5-11.76,12.5-.52-.4-4.72-5.8-6.85-8.17-2.12-2.37-2.91-1.34-2.91-1.34-.45-3.61-3.03-9.7-6.27-14.32-2.47-3.74-5.22-6.33-15.45-16.23-9.68-10.4-14.7-27.13-15.76-30.75-.18-.79-.04-3.72.91-4.15s1.1-.65,1-.98c-.07-.06,0-.61-1.43-.45-1.4.54-1.39.33-1.39.33-1.1-1.46-3.08-16.33-3.16-16.66-.08-.33,1.1-1.63,1.1-1.63,0,0,1.68-1.18,1.29-1.73-.22-.36-2.67-.5-2.89-.66-.22-.17-.35-1.87.22-8.06.58-6.19,2.81-7.72,2.81-7.72,0,0,1.77-.18,3.11.31,1.34.5,2.17.72,1.9-1.81-.47-2.85.93-2.05,3.26-2.29,0,0,52.97,1.61,55.89,1.34,0,0,28.11-.44,33.66-3.41.91.88,1.27,6.54,1.27,6.54.93,5.89.45,17.08-.67,19.15-.24.94-.89,1.45-.89,1.45.34.21,1.2,1.7,1.42,3.28.23,1.57-1.08,3.63-1.48,4.3-.41.67-2,2.12-2.28,2.51Z"/>
      <path class="cls-11" d="m124.98,377.99s5.82,7.8,9.98,6.9,10.84-4.9,12.52-7.19,5.33-11.72,5.44-12.1-7.56-13.89-7.56-13.89l-25.62,12.93,5.24,13.34Z"/>
      <path class="cls-19" d="m97.93,345.75s-.88-6.81,10.01-15.39c10.89-8.58,21.15-7.59,23.32-6.44s14.88,13.28,18.42,21.12c3.55,7.84,5.45,14.85,2.89,21.53l-4.29,5.45s-.25-12.29-1.82-14.77-2.72-2.06-3.38-1.57c0,0,3.3,1.32,3.8,6.52,0,0,1.07,8.33-.99,11.47s-2.77,3.69-3.12,3.54-1.34.43-2.25-7.29c0,0-1.73-6.24-2.56-6.81s-2.48-2.29-2.72-2.13,2.89,5.27,3.05,5.52,1.98,4.37,1.98,4.79,1.45,4.57-.31,6.95c0,0-1.65,2.55-2.77,1.91s-3.19-3.08-3.77-4.98-2.81-6.19-2.97-6.68-1.4-2.71-1.73-2.88-1.9-.83-1.9-.42,4.5,5.28,4.64,7.18.3,4.19-2.37,4.86-3.26.87-4.13.77-3.67-6.53-4-6.86-6.19-2.17-7.59-4.14-13.7-16.32-14.27-17.89-1.18-3.34-1.18-3.34Z"/>
      <path class="cls-11" d="m189.87,377.89s4.17,2.16,6.35,2.36,3.59.82,4.17.38,1.78-6.01,1.68-7.53c.09-.79-9.15-14.02-9.15-14.02l-4.44,14.47,1.39,4.35Z"/>
      <path class="cls-19" d="m178.4,363.12s-5.36-3.3-4.13-8.83,1.4-6.22,4.13-11.11,5.86-9.65,7.8-12.32,8.68-11.67,12.16-12.89,7.77-3.28,14.28-1.14c6.52,2.15,13.88,8,15.48,17.82,0,0,.69,4.79-2.19,9.65-2.89,4.87-16.42,23.84-16.42,23.84,0,0-3.63,2.31-4.79,1.16s.25-7.59.58-8.09c0,0-2.11,5.15-2.76,9.59l-.56,2.73s-2.67,2.15-4.87,1.27-2.7-4.4-2.81-6.11-.55-7.54-.55-7.54c0,0-1.16,4.4-.61,6.55s1.87,6.22.94,6.99-5.09-.94-5.6-1.16-2.54-4.24-3.15-5.83-.66-9.08-.66-9.41-.44-3.69-1.27-3.69-1.49,1.21-1.27,1.54.77,1.71,1.65,1.93c0,0-.17,5.56.06,6.33s2.48,7.37,2.64,7.59.99,3.56.83,3.48-4.4-1.78-4.84-2.22-3.03-2.59-3.3-4.73-.77-5.42-.77-5.42Z"/>
    </g>
  </g>
  <g id="ear_L" data-name="ear L">
    <path class="cls-13" d="m2.46,129.7s5.65,47.59,65,38.24l-2.53-7.54s-38.5-2.78-42.79-7.41-19.68-23.29-19.68-23.29Z"/>
    <path class="cls-15" d="m64.93,160.4s-34.34,10.16-52.78-12.44c-18.45-22.6-15.35-58.02,5.71-72.1,19.13-13.75,33.35-8,46.13.13,12.78,8.12,0,0,0,0l1,83.03"/>
    <path class="cls-1" d="m25.48,92.96s7.13-7.6,16.29-5.76,12.13,8.19,12.73,9.31-12.53-3.84-12.53-3.84l-16.48.29Z"/>
    <path class="cls-12" d="m55.45,98.99s1.86,3.08,2.3,3.55-.69,5.8-.69,5.8l-12.12-1.85.74-5.96,9.77-1.54Z"/>
    <path class="cls-13" d="m43.4,108.16c-.52-1.75,7.78-5.59,11.93-1.67,0,0,1.14.7,1.65.77s.29,12.43-.48,14.18l-12.38-8.99s-1.32-4.12-1.03-4.28.31-.02.31-.02Z"/>
    <path class="cls-3" d="m18.51,107.36s1.1-9.49,6.97-14.4c0,0,10.52-4.87,17.3-2.23,6.79,2.64,11.72,5.78,11.72,5.78,0,0,1.01,1.59.95,2.49,0,0-7.34,4.38-8.93,4.96l.43,1.51s-3.65,1.09-3.55,2.7c-.31,2.87,8.91,9.08,13.1,13.28h3.01v19.57l-2.26.03s-13.42,7.47-21.42-8.29-15.35-25.91-15.35-25.91l-1.98.5Z"/>
    <path class="cls-8" d="m18.51,107.36s5.12-10.89,12.95-6.19c0,0,6.68,4.25,7.84,7.33,0,0-13.04,15.36,1.82,29.39,0,0,6.45,5.35,17.71,2.92l.69,2.85s-11.47,5.03-24.34-.17-19.31-19.72-16.67-36.14Z"/>
  </g>
  <g id="ear_R" data-name="ear R">
    <path class="cls-13" d="m321.34,129.69s-4.17,47.54-63.51,38.19l2.53-7.54s37.02-2.73,41.31-7.36c4.29-4.63,19.68-23.29,19.68-23.29Z"/>
    <path class="cls-15" d="m260.36,160.34s32.85,10.21,51.3-12.38c18.45-22.6,15.35-58.02-5.71-72.1-19.13-13.75-33.35-8-46.13.13-12.78,8.12,0,0,0,0l.54,84.36"/>
    <path class="cls-1" d="m298.32,92.95s-7.13-7.6-16.29-5.76-12.13,8.19-12.73,9.31,12.53-3.84,12.53-3.84l16.48.29Z"/>
    <path class="cls-12" d="m268.35,98.98s-1.86,3.08-2.3,3.55.69,5.8.69,5.8l12.12-1.85-.74-5.96-9.77-1.54Z"/>
    <path class="cls-13" d="m280.4,108.15c.52-1.75-7.78-5.59-11.93-1.67,0,0-1.14.7-1.65.77s-.29,12.43.48,14.18l12.38-8.99s1.32-4.12,1.03-4.28-.31-.02-.31-.02Z"/>
    <path class="cls-3" d="m305.29,107.35s-1.1-9.49-6.97-14.4c0,0-10.52-4.87-17.3-2.23-6.79,2.64-11.72,5.78-11.72,5.78,0,0-1.01,1.59-.95,2.49,0,0,7.34,4.38,8.93,4.96l-.43,1.51s3.65,1.09,3.55,2.7c.31,2.87-8.91,9.08-13.1,13.28h-3.01s0,19.57,0,19.57l2.26.03s13.42,7.47,21.42-8.29,15.35-25.91,15.35-25.91l1.98.5Z"/>
    <path class="cls-8" d="m305.29,107.35s-5.12-10.89-12.95-6.19c0,0-6.68,4.25-7.84,7.33,0,0,13.04,15.36-1.82,29.39,0,0-6.45,5.35-17.71,2.92l-.69,2.85s11.47,5.03,24.34-.17,19.31-19.72,16.67-36.14Z"/>
  </g>
  <g id="head">
    <path class="cls-2" d="m259.64,173.54c-.13,1.14-.26,2.93-.13,3.66.18,1.03.62,7.72.33,7.65-.28-.06-2.98-4.74-3.38-4.74-.38.03-1.01,5.52-1.08,5.98-.08.47-1.41,6.65-1.41,6.65l-2.45-5.09s-.04.06-.06.08l-.94,1.18s0,.09,0,.14c-.57,5.95-1.03,7.47-2.03,7.81-.94.32-2.16-1.93-2.34-2.26-18.6,21.88-47.63,35.02-85.22,35.02-33.28,0-58.28-11.42-75.42-29.56-1.1-.05-2.54-.46-3.65-1.98,0,0-1.02-2.17-1.45-3.89-.11-.45-.18-.86-.18-1.2,0,0-.17.18-.45.41-.66.58-1.92,1.49-2.75,1.03-1.11-.61-1.18-5.14-1.11-6.38,0-.08,0-.15.01-.2.06-.51-.2-.86-.63-.73-.27.09-.61.37-.99.94-.99,1.46-1.58,2.43-1.58,2.43,0,0-2.29-2.46-2.62-4.37-.57-1.87-1.08-3.36-.93-4.16.15-.8.13-2.68-.9-1.65-1.03,1.04-2.3,2.43-2.3,2.43,0,0-.45-12.43-1.5-14.37-.24-.44.14-.64.86-.69-4.96-12.69-7.73-26.61-8.41-41.06-6.54-56.11,28.16-100.66,85.1-110.17h0s3.19-2.93,4.55-6.19c1.37-3.26,2.13-6.4,3.89-6.28,1.76.11,4.94,2.76,5.14,3.39,0,0,2.17.35,3.05-2.32,0,0,1.8-2.75,3.23-3.33,1.43-.57,6.16-1.52,6.62-1.21.47.31.74,10.15.73,10.99,0,0,6.42-6.66,8.46-7.45,0,0,5.42-3.8,5.61-3.92.18-.13,1.18-.13,1.18-.13,0,0-1.5,8.92,2.95,13.57,0,0,1.86,2.12,3.67,3.57,52.99,11.1,79.71,56.83,78.83,109.48-.29,17.25-3.8,33.1-10.28,46.92Z"/>
    <path class="cls-2" d="m75.92,187.85s-.01.12-.01.2c-.22-.31-.42-.61-.62-.93.43-.13.69.22.63.73Z"/>
    <path class="cls-2" d="m80.4,194.19c-.21-.26-.42-.53-.63-.79.28-.23.45-.41.45-.41,0,.34.07.75.18,1.2Z"/>
    <path class="cls-2" d="m251.46,187.73c-.31.44-.63.88-.95,1.32,0-.05,0-.09,0-.14l.94-1.18Z"/>
    <path class="cls-14" d="m244.29,141.68c-16.45,46.8-73.51,40.84-81.05,39.84-3.84.57-64.62,8.81-81.69-39.75,0,0-18.6-49.93,24.89-79.54,0,0,22.48-17.61,56.48,4.39v-.09c34-22,56.48-4.39,56.48-4.39,43.49,29.61,24.89,79.54,24.89,79.54Z"/>
    <path class="cls-17" d="m97.98,165.94s9.36-5.99,17.61-6.94,92.05,1.5,92.05,1.5c0,0,13.23,1.95,16.31,7.5,1.46,2.63-10.55,4.49-12.29,7.1-1.94,2.9,6.27,6.4,6.27,6.4,0,0,6.66,21.24-10.23,38-15.13,15.02-39.2,16.43-47.24,16.06-29.41-1.38-41.97-12.6-49.66-21.02-8.44-9.24-10.6-21.37-8.21-31.6.83-3.54,6.51-8.07,5.78-10.64-1.4-4.87-10.38-6.35-10.38-6.35Z"/>
    <path class="cls-16" d="m242.34,145.33c-2.45,11.5-16.15,23.64-27.13,29.05-.26.13,1.97,3.07,2.44,6.46-.25,4.7-4.26,14.6-4.62,14.76-12.38,24.63-40.34,29.27-51.15,29.25-13.86.99-42.45-5.12-54.41-29.5-3.59-7.59-3.22-11.18-5.16-13.08.45-2.21,2.52-6.38,3.86-10.48-10.39-5.78-19.31-15.22-24.46-29.52,0,0-2.2-59.36,39.44-71.57,0,0,17.34-5.92,40.17,11.32,22.83-17.24,40.17-11.32,40.17-11.32,41.64,12.21,40.85,74.63,40.85,74.63Z"/>
    <path class="cls-17" d="m204.16,157.13c-4.6.62-8.71-.13-8.71-.13,1.55,1.55,4.65,2.8,7.99,4.98,3.47,2.66,9.12,7.18,12.04,13.06,0,0,4.28-2.15,4.87-2.68.58-.53,4.46-3.04,4.46-3.04-1.27-1.76-4-4.34-6.88-5.96-2.89-1.62-10.43-2.85-10.43-2.85l-3.33-3.37Z"/>
    <path class="cls-5" d="m214.14,151.69c-.45-.23-3.28,2.3-3.76,2.53-.47.23-1.62,2.29-6.22,2.91s-8.71-.13-8.71-.13c1.55,1.55,4.65,2.8,7.99,4.98,0,0,3.18-1.04,4.19-1.48,1.02-.44,4.93-6.24,6.35-7.59,0,0,.61-.98.15-1.21Z"/>
    <path class="cls-17" d="m117.86,161.07c-.4-.39-2.48-2.04-2.48-2.04-8.6,1.32-17.56,7.05-17.56,7.05,0,0,2.43,2.14,3.5,2.84,1.45,1.24,5.11,3.53,5.11,3.53.27-.37,3.03-3.49,3.8-4.52,0,0,6.35-5.18,8.23-5.92,0,0-.17-.54-.6-.95Z"/>
    <path class="cls-5" d="m125.84,157.02s-6.54,4.71-7.38,5c0,0-.6-.95-1.75-1.96-1.2-.56-1.32-1.03-1.32-1.03,0,0-.48-.89-.48-1.03s6.17-.65,6.17-.65l4.77-.32Z"/>
    <g id="EYE_L" data-name="EYE L">
      <path class="cls-13" d="m149.11,115.11c-1.08-7.84-7.39-19.06-13.04-21.74-5.65-2.68-17.82-4-29.89,9.37-12.07,13.38-9.79,30.19-9.79,30.19.1,1.23,0,6.03,3.46,12.96,3.47,6.93,14.93,12.11,14.93,12.11,0,0,4.38-.32,11.06-.98,6.68-.66,17-10.06,21.12-16.41,4.13-6.36,3.22-17.66,2.15-25.5Zm-16.42-6.08l-21.18,3.96-1.4-2s8.43-8.42,14.14-7.68c5.71.75,9.78,3.36,9.78,3.36l-1.34,2.36Z"/>
      <path class="cls-13" d="m134.03,106.67l-1.34,2.36-21.18,3.96-1.4-2s8.43-8.42,14.14-7.68c5.71.75,9.78,3.36,9.78,3.36Z"/>
      <path class="cls-15" d="m144.2,132.69c-1.31,7.01-8.27,13.16-16.17,15.28h-.01c-4.78,1.28-9.89,1.08-14.31-1.3-11.71-6.31-10.12-19.18-10.12-19.18.77-6.03,2.57-9.14,4.06-11.57.91-1.5,1.94-2.76,3.08-4.04.7-.79,1.44-1.59,2.22-2.46,2.02-2.25,6.62-5.22,9.9-5.4,3.28-.19,6.12.94,6.12.94,1.69.4,3.32,1.16,4.84,2.09.15.09.29.19.44.28,3.4,2.21,6.18,5.27,7.51,7.33,1.98,3.05,4.54,6.76,2.44,18.03Z"/>
      <path class="cls-10" d="m133.81,107.05l-1.12,1.98-21.18,3.96-.78-1.11c.7-.79,1.44-1.59,2.22-2.46,2.02-2.25,6.62-5.22,9.9-5.4,3.28-.19,6.12.94,6.12.94,1.69.4,3.32,1.16,4.84,2.09Z"/>
      <path class="cls-19" d="m144.2,132.69c-1.31,7.01-8.27,13.16-16.17,15.28h-.01c-.24-.09-2.28-.29-4.35-.1-2.08.18-5.48-.25-6.2-.44-.73-.18-1.61-1.38-1.57-1.85.04-.48.97-.35.97-.35,4.22.29,9.27-.44,9.8-.52.03-.01.04-.01.04-.01,1.91-.52,5.22-2.35,5.22-2.35l1.03-33.82.85-1.48.44.28c3.4,2.21,6.18,5.27,7.51,7.33,1.98,3.05,4.54,6.76,2.44,18.03Z"/>
      <path class="cls-6" d="m111.52,112.99h.47s13.46-6.99,13.46-6.99c0,0,3.4-.15,6.53,1.81s7.89,5.99,9.83,14.49-4.74,16.71-6.56,17.94-7.76,5.82-15.35,4.17c-7.59-1.65-10.73-5.94-11.51-8.17s-2.27-5.2-1.4-11.01c0,0,1.33-5.38,2.68-7.99s1.85-4.24,1.85-4.24Z"/>
      <path class="cls-14" d="m111.97,113.06c.28,1.05,1.11,3.33,4.09,5.16,3.29,1.49,5.61-.02,6.06-.17s2.29-2.54,3.05-3.05,3.88-3.24,5.78-3.8,1.46-.52,1.46-.52c0,0-1.26-2.08-2.45-2.57s-.77-1.5-4.52-2.14c0,0-4.27.06-6.95.99s-4.74,1.92-5.73,3.38-.85,2.5-.79,2.7Z"/>
    </g>
    <g id="EYE_R" data-name="EYE R">
      <path class="cls-13" d="m224.92,116.67c-1.08-7.84-8.7-18.91-14.34-21.61-10.71-5.12-20-5.69-31.52,8.33-9.9,15.48-6.11,31.02-6.11,31.02.1,1.23,3.47,10.53,9.65,15.18s10.89,7.01,10.89,7.01c0,0,3.3,1.43,9.98.77,6.68-.66,15.17-8.86,19.29-15.21,4.13-6.36,3.22-17.66,2.15-25.5Zm-16.42-6.08l-21.18,3.96-1.4-2s8.43-8.42,14.14-7.68c5.71.75,9.78,3.36,9.78,3.36l-1.34,2.36Z"/>
      <path class="cls-13" d="m208.7,107.04l-1.34,2.36-21.18,3.96-1.4-2s8.43-8.42,14.14-7.68c5.71.75,9.78,3.36,9.78,3.36Z"/>
      <path class="cls-18" d="m218.87,133.06c-1.31,7.01-8.27,13.16-16.17,15.28h-.01c-4.78,1.28-9.89,1.08-14.31-1.3-11.71-6.31-10.12-19.18-10.12-19.18.77-6.03,1.24-10.07,2.73-12.5.91-1.5,2.65-4.39,3.79-5.67.7-.79,3.31-2.99,4.96-3.69,5.8-2,4.5-1.43,7.78-1.61,3.28-.19,6.12.94,6.12.94,1.69.4,3.32,1.16,4.84,2.09.15.09.29.19.44.28,3.4,2.21,6.18,5.27,7.51,7.33,1.98,3.05,4.54,6.76,2.44,18.03Z"/>
      <path class="cls-18" d="m208.48,107.42l-1.12,1.98-21.18,3.96-.78-1.11c.7-.79,1.44-1.59,2.22-2.46,2.02-2.25,6.62-5.22,9.9-5.4,3.28-.19,6.12.94,6.12.94,1.69.4,3.32,1.16,4.84,2.09Z"/>
      <path class="cls-18" d="m218.87,133.06c-1.31,7.01-8.27,13.16-16.17,15.28h-.01c-.24-.09-2.28-.29-4.35-.1-2.08.18-5.48-.25-6.2-.44-.73-.18-1.61-1.38-1.57-1.85.04-.48.97-.35.97-.35,4.22.29,9.27-.44,9.8-.52.03-.01.04-.01.04-.01,1.91-.52,5.22-2.35,5.22-2.35l1.03-33.82.85-1.48.44.28c3.4,2.21,6.18,5.27,7.51,7.33,1.98,3.05,4.54,6.76,2.44,18.03Z"/>
      <path class="cls-6" d="m185.49,112.99l1.17.37,10.94-7.37s5.92.22,9.05,2.17,7.89,5.99,9.83,14.49c1.94,8.5-4.74,16.71-6.56,17.94s-7.76,5.82-15.35,4.17-10.73-5.94-11.51-8.17-2.77-5.32-1.9-11.14c0,0,.59-5.51,1.94-8.12s2.39-4.35,2.39-4.35Z"/>
      <path class="cls-14" d="m185.49,112.99c.74,1.03,2.26,3.77,5.24,5.61,2.76,1.45,4.6-.75,4.6-.75,0,0,2-1.95,2.76-2.46s1.12-.93,2.77-1.67c2.55-.95,4.39-.71,4.39-.71,0,0,1.51-.93-1.67-4.23-1.06-.72-2.23-2.15-5.98-2.79,0,0-1.3-.21-4.04.5-2.31.6-4.65,1.78-5.64,3.25s-2.55,3.08-2.43,3.25Z"/>
    </g>
    <g id="nose_lips" data-name="nose lips">
      <path class="cls-1" d="m106.73,182.49s9.78,7.59,27.32,10.57c17.54,2.98,38.54,3.44,51.31.31s23.32-6.43,27.36-9.88c4.04-3.45,0,0,0,0,0,0-7.94,10.71-31.78,14.23-23.84,3.52-39.26.43-46.73-1.12-7.47-1.55-21.94-6.55-27.49-14.11"/>
      <path class="cls-7" d="m144.34,155.59c2.02-1.67,10.19-.77,12.81,3.93,2.96,6.66-4.12,6.36-7.13,5.29s-8.34-2.55-7.5-6.65c.58-2,1.82-2.57,1.82-2.57"/>
      <path class="cls-7" d="m164.22,165.49s-2.51-5.64,4.55-9.39c6.87-3.11,10.81.65,10.02,2.88-.98,2.42-3.92,6.36-14.57,6.51"/>
      <path class="cls-13" d="m151.73,144.49s2.9,1.73,10.16,1.49,11.91-.84,10.59,2.26c-2.38,1.45-10,4.55-12.25,4.75,0,0-4.88-2.36-7.29-2.97-2.51-.92-5.32-1.39-1.21-5.53"/>
    </g>
  </g>
</svg>