<svg width="305" height="296" viewBox="0 0 305 296" fill="none" xmlns="http://www.w3.org/2000/svg">
<g clip-path="url(#clip0_189_491)">
<g filter="url(#filter0_b_189_491)">
<path fill-rule="evenodd" clip-rule="evenodd" d="M29.9119 142.125L75.4962 78.3266L81.9551 79.8185L90.9454 53.8962L101.499 64.2092L111.104 27.9738L123.91 35.0232L146.171 0L179.601 52.255L186.544 45.2056L205.604 80.0796L211.467 70.438L227.81 86.8679L232.78 79.9491L289.551 142.666C289.551 142.666 132.249 184.702 29.9305 142.125H29.9119ZM78.0835 83.623L90.0705 103.242L84.4307 84.2384L78.0835 83.623ZM214.241 91.4183L191.532 51.5091L183.398 58.0176L150.732 7.79536C150.732 7.79536 151.681 20.7752 148.722 30.622C144.738 43.9561 143.659 51.0428 153.729 57.9057C166.516 66.5963 153.338 74.4849 146.209 79.2777C129.159 90.747 124.729 117.341 144.906 117.192L182.486 116.912C182.486 116.912 178.28 105.517 214.241 91.3997V91.4183ZM240.43 85.7863L243.836 98.0761L262.878 107.643L240.449 85.7863H240.43ZM218.373 75.2681L219.36 92.6492L225.037 85.8609L228.685 110.981L265.279 116.408L235.349 99.5867L232.817 88.994L218.373 75.2868V75.2681ZM114.045 34.4078L115.999 55.3135L124.766 39.7041L114.045 34.4078ZM94.7611 61.561L94.4819 96.5842L102.467 68.629L94.7611 61.5796V61.561Z" fill="#5C577B" fill-opacity="0.79"/>
<path d="M82.4275 79.9824L91.1595 54.8045L101.15 64.5668L101.763 65.1659L101.983 64.3373L111.423 28.7204L123.669 35.4612L124.08 35.6876L124.332 35.2914L146.173 0.929942L150.525 7.73343L150.233 7.83183L150.233 7.83215L150.233 7.83365L150.234 7.84017L150.236 7.86713C150.237 7.89122 150.24 7.92749 150.243 7.97543C150.249 8.07131 150.258 8.2139 150.268 8.39925C150.288 8.76996 150.313 9.31166 150.334 9.99291C150.377 11.3556 150.403 13.2755 150.337 15.5013C150.205 19.9606 149.704 25.6165 148.243 30.4781L148.242 30.4789C146.256 37.1298 144.954 42.3329 145.458 46.7473C145.97 51.2258 148.327 54.8297 153.447 58.3189L153.447 58.3193C156.592 60.4563 158.05 62.4845 158.463 64.3456C158.873 66.1954 158.276 68.0023 157.029 69.7646C155.779 71.5311 153.911 73.2015 151.887 74.7404C150.262 75.9755 148.561 77.1082 147.025 78.1309C146.649 78.3815 146.283 78.6255 145.93 78.8628L145.93 78.8628C137.288 84.6762 131.83 94.3241 131.099 102.547C130.733 106.664 131.549 110.476 133.812 113.259C136.084 116.054 139.751 117.73 144.909 117.692L182.49 117.412L183.202 117.406L182.957 116.742L182.957 116.742L182.956 116.741L182.956 116.74L182.955 116.739L182.953 116.73C182.948 116.716 182.941 116.692 182.933 116.658C182.915 116.589 182.891 116.478 182.872 116.329C182.832 116.031 182.809 115.574 182.887 114.975C183.042 113.78 183.603 111.994 185.279 109.749C188.615 105.28 196.357 99.0075 214.012 92.0272L214.741 93.3081V91.4183V91.3997V90.6663L214.453 90.7794L207.313 78.2319L211.563 71.2431L218.012 77.7263L218.86 92.6775L218.932 93.9398L219.743 92.97L224.703 87.0397L228.19 111.053L228.244 111.421L228.612 111.476L265.206 116.903L265.302 116.622L288.627 142.391C288.361 142.459 288.031 142.544 287.637 142.643C286.462 142.94 284.725 143.37 282.477 143.903C277.981 144.968 271.442 146.442 263.275 148.079C246.942 151.352 224.098 155.273 198.06 157.864C146.159 163.03 81.6423 162.904 30.6887 141.898L75.709 78.8889L81.8425 80.3057L82.2803 80.4068L82.4275 79.9824ZM253.345 103.413L263.874 115.045L235.784 99.2579L233.303 88.8777L233.269 88.7334L233.161 88.6313L229.592 85.2441L232.825 80.7437L241.024 89.8019L243.354 98.2097L243.414 98.4233L243.612 98.5229L253.345 103.413ZM228.271 85.3691L227.748 86.0969L218.989 77.2904L218.945 76.5187L228.271 85.3691ZM260.213 105.745L253.961 102.603L241.924 89.3065L241.399 87.4106L260.213 105.745ZM206.153 78.2151L205.627 79.0793L191.099 52.4965L191.388 52.2654L206.153 78.2151ZM186.428 46.036L189.819 52.2399L183.517 57.2826L180.269 52.2895L186.428 46.036ZM78.1317 83.1253L77.1344 83.0286L77.6568 83.8837L89.6439 103.503L90.5499 103.1L84.91 84.0961L84.8142 83.7732L84.4789 83.7407L78.1317 83.1253ZM114.266 33.9595L113.464 33.563L113.547 34.4543L115.501 55.36L115.65 56.9554L116.435 55.5584L125.202 39.949L125.46 39.4893L124.987 39.2559L114.266 33.9595ZM95.0986 61.2107L94.7799 61.5591L94.2611 61.557L94.2611 61.561L93.9819 96.5802L94.9627 96.7215L102.948 68.7664L103.033 68.4689L102.805 68.2601L95.0986 61.2107Z" stroke="#5C577B" stroke-opacity="0.68"/>
</g>
<g filter="url(#filter1_b_189_491)">
<path d="M302.413 150.574L304.535 138.974C307.811 120.94 293.832 106.785 275.553 107.121L200.765 106.114C183.51 106.431 167.763 116.054 159.592 131.309L146.748 155.292C143.826 160.756 135.729 159.88 134.054 153.893L125.883 124.819C122.439 112.567 111.29 104.118 98.5954 104.118H81.5827C61.8338 104.118 44.6164 117.583 39.8327 136.773L12.3779 246.654C6.23545 271.253 24.7931 295.086 50.1073 295.086H51.1869C72.853 295.086 91.0011 279.309 94.0351 258.049C95.9895 244.323 97.9439 230.672 98.7815 224.797C98.8932 224.033 99.9542 223.94 100.196 224.667L111.867 258.235C115.478 268.604 129.326 270.469 135.524 261.406L160.262 225.264C160.708 224.611 161.732 225.021 161.602 225.804L158.866 241.619C154.38 267.653 174.371 291.45 200.727 291.45H257.982C268.406 291.45 277.136 283.524 278.141 273.136L279.462 259.783C280.467 249.526 272.426 240.631 262.133 240.631H232.743C228.35 240.631 224.776 237.05 224.776 232.649V229.758C224.776 225.245 228.443 221.571 232.947 221.571H255.432C261.314 221.571 266.321 217.263 267.196 211.426L268.964 199.565C269.858 193.541 265.204 188.114 259.118 188.114H233.059C229.113 188.114 225.911 184.907 225.911 180.953V174.743C225.911 170.174 229.615 166.481 234.157 166.481H283.371C292.715 166.481 300.719 159.786 302.413 150.574Z" fill="#342E38" fill-opacity="0.79"/>
<path d="M275.563 107.621L275.555 107.621L275.547 107.621L200.766 106.614C183.696 106.931 168.117 116.452 160.032 131.545L147.189 155.528C147.189 155.528 147.189 155.528 147.189 155.528C144.054 161.389 135.369 160.448 133.572 154.028L125.401 124.954C122.018 112.917 111.065 104.618 98.5954 104.618H81.5827C62.0638 104.618 45.0461 117.926 40.3179 136.894L40.3178 136.894L12.863 246.775M275.563 107.621L12.863 246.775M275.563 107.621C293.575 107.29 307.254 121.208 304.043 138.884L301.921 150.483C301.921 150.483 301.921 150.483 301.921 150.484C300.27 159.46 292.472 165.981 283.371 165.981H234.157C229.339 165.981 225.411 169.898 225.411 174.743V180.953C225.411 185.182 228.836 188.614 233.059 188.614H259.118C264.897 188.614 269.319 193.768 268.47 199.492L275.563 107.621ZM12.863 246.775C6.79901 271.059 25.1197 294.586 50.1073 294.586H51.1869C72.6049 294.586 90.5413 278.991 93.5401 257.978M12.863 246.775L93.5401 257.978M93.5401 257.978C93.5401 257.978 93.5401 257.978 93.5401 257.978L94.0351 258.049M93.5401 257.978L100.196 224.667C99.9542 223.94 98.8932 224.033 98.7815 224.797C98.4966 226.796 98.0824 229.694 97.5829 233.19C96.6142 239.969 95.3246 248.993 94.0351 258.049M94.0351 258.049C91.0011 279.309 72.853 295.086 51.1869 295.086H50.1073C24.7931 295.086 6.23545 271.253 12.3779 246.654L39.8327 136.773C44.6164 117.583 61.8338 104.118 81.5827 104.118H98.5954C111.29 104.118 122.439 112.567 125.883 124.819L94.0351 258.049Z" stroke="#342E38" stroke-opacity="0.68"/>
</g>
<g filter="url(#filter2_b_189_491)">
<path d="M292.157 150.574L294.279 138.974C297.555 120.94 283.576 106.785 265.297 107.121L190.509 106.114C173.254 106.431 157.507 116.054 149.336 131.309L136.492 155.292C133.57 160.756 125.473 159.88 123.798 153.893L115.627 124.819C112.183 112.567 101.034 104.118 88.3394 104.118H71.3267C51.5778 104.118 34.3604 117.583 29.5767 136.773L2.12191 246.636C-4.02053 271.234 14.5371 295.068 39.8514 295.068H40.9309C62.597 295.068 80.7451 279.29 83.7791 258.03C85.7335 244.304 87.6879 230.653 88.5255 224.779C88.6372 224.014 89.6982 223.921 89.9402 224.648L101.611 258.217C105.222 268.586 119.07 270.451 125.268 261.387L150.006 225.245C150.452 224.592 151.476 225.003 151.346 225.786L148.61 241.6C144.124 267.635 164.115 291.431 190.471 291.431H247.726C258.15 291.431 266.88 283.505 267.885 273.117L269.206 259.765C270.211 249.508 262.17 240.612 251.877 240.612H222.487C218.094 240.612 214.52 237.031 214.52 232.63V229.739C214.52 225.226 218.187 221.552 222.691 221.552H245.176C251.058 221.552 256.065 217.244 256.94 211.407L258.708 199.546C259.602 193.523 254.948 188.096 248.862 188.096H222.803C218.857 188.096 215.655 184.888 215.655 180.934V174.724C215.655 170.155 219.359 166.463 223.901 166.463H273.115C282.459 166.463 290.463 159.768 292.157 150.555V150.574Z" fill="#FCDFCA" fill-opacity="0.92"/>
<path d="M292.157 150.574L294.279 138.974C297.555 120.94 283.576 106.785 265.297 107.121L190.509 106.114C173.254 106.431 157.507 116.054 149.336 131.309L136.492 155.292C133.57 160.756 125.473 159.88 123.798 153.893L115.627 124.819C112.183 112.567 101.034 104.118 88.3394 104.118H71.3267C51.5778 104.118 34.3604 117.583 29.5767 136.773L2.12191 246.636C-4.02053 271.234 14.5371 295.068 39.8514 295.068H40.9309C62.597 295.068 80.7451 279.29 83.7791 258.03C85.7335 244.304 87.6879 230.653 88.5255 224.779C88.6372 224.014 89.6982 223.921 89.9402 224.648L101.611 258.217C105.222 268.586 119.07 270.451 125.268 261.387L150.006 225.245C150.452 224.592 151.476 225.003 151.346 225.786L148.61 241.6C144.124 267.635 164.115 291.431 190.471 291.431H247.726C258.15 291.431 266.88 283.505 267.885 273.117L269.206 259.765C270.211 249.508 262.17 240.612 251.877 240.612H222.487C218.094 240.612 214.52 237.031 214.52 232.63V229.739C214.52 225.226 218.187 221.552 222.691 221.552H245.176C251.058 221.552 256.065 217.244 256.94 211.407L258.708 199.546C259.602 193.523 254.948 188.096 248.862 188.096H222.803C218.857 188.096 215.655 184.888 215.655 180.934V174.724C215.655 170.155 219.359 166.463 223.901 166.463H273.115C282.459 166.463 290.463 159.768 292.157 150.555V150.574Z" stroke="#FCDFCA" stroke-opacity="0.1" stroke-miterlimit="10"/>
</g>
</g>
<defs>
<filter id="filter0_b_189_491" x="-1.88813" y="-31.8" width="323.239" height="224.789" filterUnits="userSpaceOnUse" color-interpolation-filters="sRGB">
<feFlood flood-opacity="0" result="BackgroundImageFix"/>
<feGaussianBlur in="BackgroundImageFix" stdDeviation="15.9"/>
<feComposite in2="SourceAlpha" operator="in" result="effect1_backgroundBlur_189_491"/>
<feBlend mode="normal" in="SourceGraphic" in2="effect1_backgroundBlur_189_491" result="shape"/>
</filter>
<filter id="filter1_b_189_491" x="-20.6048" y="72.3185" width="357.418" height="254.568" filterUnits="userSpaceOnUse" color-interpolation-filters="sRGB">
<feFlood flood-opacity="0" result="BackgroundImageFix"/>
<feGaussianBlur in="BackgroundImageFix" stdDeviation="15.9"/>
<feComposite in2="SourceAlpha" operator="in" result="effect1_backgroundBlur_189_491"/>
<feBlend mode="normal" in="SourceGraphic" in2="effect1_backgroundBlur_189_491" result="shape"/>
</filter>
<filter id="filter2_b_189_491" x="-14.561" y="88.6185" width="324.819" height="221.949" filterUnits="userSpaceOnUse" color-interpolation-filters="sRGB">
<feFlood flood-opacity="0" result="BackgroundImageFix"/>
<feGaussianBlur in="BackgroundImageFix" stdDeviation="7.5"/>
<feComposite in2="SourceAlpha" operator="in" result="effect1_backgroundBlur_189_491"/>
<feBlend mode="normal" in="SourceGraphic" in2="effect1_backgroundBlur_189_491" result="shape"/>
</filter>
<clipPath id="clip0_189_491">
<rect width="305" height="296" fill="white"/>
</clipPath>
</defs>
</svg>
